<?xml version="1.0" standalone="no"?>
<!DOCTYPE svg PUBLIC "-//W3C//DTD SVG 20010904//EN"
 "http://www.w3.org/TR/2001/REC-SVG-20010904/DTD/svg10.dtd">
<svg version="1.0" xmlns="http://www.w3.org/2000/svg"
 width="1981.000000pt" height="1981.000000pt" viewBox="0 0 1981.000000 1981.000000"
 preserveAspectRatio="xMidYMid meet">
<metadata>
Created by potrace 1.14, written by Peter Selinger 2001-2017
</metadata>
<g transform="translate(0.000000,1981.000000) scale(0.100000,-0.100000)"
fill="#000000" stroke="none">
<path d="M9909 19416 c-3 -3 -41 -11 -84 -16 -43 -5 -84 -15 -92 -22 -8 -6
-29 -13 -46 -15 -18 -2 -33 -8 -35 -13 -2 -6 -9 -10 -15 -10 -20 -1 -118 -66
-110 -74 4 -4 0 -4 -10 0 -12 4 -17 1 -17 -11 0 -9 -4 -14 -9 -11 -17 11 -178
-174 -164 -188 3 -3 2 -6 -4 -6 -11 0 -63 -100 -63 -122 0 -10 -3 -9 -10 2 -8
13 -10 13 -14 0 -3 -8 -5 -28 -4 -45 0 -16 -5 -68 -12 -115 -7 -50 -9 -124 -5
-180 6 -91 38 -224 56 -235 4 -3 6 -12 3 -20 -3 -7 4 -23 15 -34 12 -12 19
-21 16 -21 -3 0 16 -33 43 -73 46 -68 140 -161 182 -181 10 -5 22 -16 25 -25
12 -29 33 -1228 55 -3111 5 -437 14 -1016 20 -1287 5 -270 10 -643 10 -830 0
-186 3 -429 7 -540 l6 -203 38 0 c21 0 48 -4 61 -9 13 -5 81 -12 151 -15 70
-3 136 -10 145 -15 10 -5 57 -12 104 -15 47 -3 92 -8 100 -11 13 -5 16 22 21
182 4 103 7 347 7 542 0 195 5 564 10 820 6 256 15 835 20 1286 13 1111 28
2098 41 2700 12 565 10 524 18 523 15 -3 61 15 61 23 0 5 25 33 55 61 30 28
52 54 49 59 -3 5 -1 9 5 9 15 0 94 127 119 190 42 111 52 165 52 287 0 88 -5
140 -21 198 -21 82 -65 185 -83 197 -6 4 -7 8 -3 8 13 0 -80 113 -136 166 -59
55 -94 81 -152 109 -22 11 -42 23 -45 26 -3 4 -21 10 -40 14 -19 4 -37 11 -40
16 -9 14 -270 46 -281 35z"/>
<path d="M7415 18180 c-11 -5 -35 -9 -53 -9 -18 -1 -31 -4 -29 -8 3 -5 -11 -9
-31 -9 -42 -2 -132 -22 -147 -34 -5 -4 -30 -11 -54 -15 -25 -4 -51 -14 -59
-21 -7 -8 -22 -14 -32 -14 -10 0 -22 -4 -25 -10 -3 -5 -14 -10 -25 -10 -10 0
-21 -7 -24 -16 -3 -8 -11 -12 -16 -9 -6 4 -23 -1 -38 -11 -15 -10 -31 -17 -36
-16 -4 2 -18 -3 -30 -11 -11 -8 -34 -17 -49 -21 -17 -4 -25 -11 -21 -18 4 -6
3 -8 -3 -5 -6 4 -27 -3 -49 -13 -21 -11 -44 -20 -51 -20 -7 0 -21 -8 -31 -17
-10 -10 -29 -19 -42 -21 -13 -1 -27 -6 -30 -11 -3 -5 -15 -11 -28 -15 -12 -4
-19 -12 -16 -18 4 -6 3 -8 -3 -5 -11 7 -133 -49 -133 -62 0 -5 -6 -9 -12 -8
-34 1 -48 -4 -48 -19 0 -8 -4 -13 -9 -10 -14 9 -42 -5 -34 -18 3 -6 3 -8 -1
-4 -11 9 -67 -12 -60 -23 3 -5 2 -8 -3 -7 -10 3 -56 -13 -63 -21 -8 -9 -96
-51 -108 -51 -6 0 -12 -3 -14 -7 -4 -10 -91 -53 -106 -53 -6 0 -12 -3 -14 -7
-4 -10 -91 -53 -107 -53 -6 0 -11 -4 -11 -10 0 -5 -11 -12 -25 -16 -14 -3 -25
-10 -25 -14 0 -5 -13 -11 -30 -15 -16 -4 -30 -11 -30 -16 0 -5 -6 -9 -12 -9
-22 0 -287 -137 -280 -145 4 -4 3 -5 -3 -4 -17 5 -75 -12 -75 -22 0 -5 -5 -9
-11 -9 -7 0 -30 -9 -53 -19 -78 -36 -114 -51 -125 -51 -6 0 -11 -4 -11 -10 0
-5 -6 -10 -12 -10 -7 -1 -31 -9 -53 -20 -22 -11 -46 -19 -53 -20 -7 0 -20 -7
-28 -15 -9 -8 -26 -15 -40 -15 -13 0 -24 -4 -24 -10 0 -5 -18 -13 -40 -16 -22
-4 -40 -10 -40 -15 0 -5 -6 -9 -12 -9 -21 -1 -89 -36 -82 -42 3 -4 -2 -4 -13
-2 -10 3 -32 -2 -48 -10 -17 -9 -40 -16 -52 -16 -13 0 -23 -4 -23 -10 0 -5
-16 -12 -35 -16 -19 -3 -38 -10 -41 -15 -3 -5 -15 -9 -27 -9 -12 0 -35 -7 -50
-15 -15 -8 -45 -17 -65 -21 -20 -4 -41 -10 -47 -14 -5 -5 -28 -11 -50 -15 -22
-4 -44 -11 -50 -15 -11 -8 -71 -24 -170 -44 -33 -7 -67 -15 -75 -19 -8 -4 -40
-10 -70 -15 -30 -4 -54 -12 -53 -18 0 -5 -38 -10 -85 -12 -48 -1 -100 -8 -117
-15 -41 -17 -657 -17 -735 0 -30 7 -77 17 -105 22 -100 20 -150 32 -167 41
-10 6 -29 10 -42 10 -14 0 -31 6 -38 13 -7 8 -31 17 -53 21 -22 4 -42 12 -46
17 -3 5 -28 10 -56 11 -28 2 -50 7 -50 12 1 5 -18 13 -43 18 -25 4 -56 12 -70
17 -33 13 -234 25 -227 14 3 -5 -12 -7 -34 -5 -21 2 -39 0 -39 -6 0 -5 -9 -12
-20 -15 -11 -3 -25 -18 -31 -34 -12 -31 -5 -148 9 -167 5 -6 15 -28 22 -49 6
-20 15 -35 19 -33 4 3 8 -1 8 -8 0 -16 58 -102 95 -140 15 -16 30 -38 34 -48
3 -10 9 -18 13 -18 5 0 38 -28 74 -62 35 -35 75 -70 87 -78 12 -8 33 -25 47
-38 13 -12 29 -19 35 -16 7 4 8 2 4 -4 -6 -11 6 -16 27 -13 4 0 7 -6 7 -14 0
-8 4 -15 9 -15 5 0 17 -7 25 -16 9 -8 25 -16 36 -17 11 -1 20 -5 20 -9 0 -5
12 -14 28 -20 15 -7 35 -18 45 -27 9 -8 20 -11 24 -8 3 4 11 -1 18 -10 7 -9
21 -17 31 -18 10 0 32 -9 47 -19 15 -10 30 -16 34 -12 4 3 14 -1 24 -10 9 -8
27 -16 40 -18 13 -2 44 -12 69 -23 76 -35 230 -61 368 -62 65 -1 73 -3 68 -18
-13 -44 -17 -94 -11 -121 6 -29 54 -92 69 -92 5 0 22 -6 39 -13 138 -58 323
-76 597 -57 104 7 190 16 190 21 0 4 29 11 65 14 36 4 68 11 70 16 3 4 27 11
53 15 26 4 49 10 52 14 3 4 20 11 38 15 31 6 32 6 32 -29 0 -102 65 -303 107
-329 7 -4 13 -15 13 -22 0 -8 6 -15 14 -15 8 0 16 -4 18 -9 7 -18 125 -72 168
-77 25 -3 55 -10 67 -16 35 -17 319 10 401 37 23 8 56 15 72 15 16 0 31 4 34
9 4 5 25 12 49 16 23 4 48 12 55 18 16 13 15 14 47 -63 36 -85 95 -173 162
-237 50 -49 64 -58 86 -54 5 1 6 -3 2 -8 -3 -6 6 -13 20 -17 14 -3 25 -10 25
-14 0 -5 20 -12 45 -16 25 -3 48 -10 51 -15 8 -13 277 -11 311 2 15 6 49 12
75 14 25 2 55 8 65 14 17 9 55 20 153 43 25 6 47 13 50 17 3 4 30 12 60 18 54
11 56 11 77 -15 13 -15 23 -31 23 -36 0 -18 75 -126 92 -131 9 -3 19 -12 22
-20 3 -8 12 -15 21 -15 8 0 15 -4 15 -8 0 -11 90 -56 97 -48 4 3 15 -2 26 -11
16 -16 39 -18 159 -17 79 1 143 6 147 11 3 6 28 13 56 17 27 3 54 11 59 16 6
6 19 10 30 10 12 0 33 6 48 14 15 8 40 17 57 21 17 4 31 11 31 16 0 5 9 9 20
9 11 0 28 8 38 18 10 9 29 18 42 20 13 1 27 6 30 11 3 5 15 11 28 15 12 4 22
14 22 21 0 9 6 12 17 8 11 -4 14 -3 9 5 -5 8 -2 10 8 6 9 -3 16 -2 16 4 0 5
12 13 27 17 15 3 31 12 35 18 6 9 10 8 17 -2 5 -7 13 -11 18 -8 5 3 22 -5 38
-19 15 -13 33 -24 38 -24 6 0 8 -3 4 -6 -5 -5 12 -23 107 -109 63 -58 80 -70
72 -55 -4 8 2 3 14 -12 12 -16 28 -28 35 -28 7 0 15 -5 17 -12 2 -6 14 -12 27
-13 12 -1 26 -7 31 -14 4 -7 28 -16 54 -18 26 -3 49 -10 52 -14 7 -12 201 -11
244 1 19 5 65 12 102 15 37 3 76 9 85 14 10 6 39 13 66 16 26 4 45 10 42 15
-2 4 1 7 8 7 29 -3 127 15 127 24 0 5 10 9 23 9 12 0 48 9 80 20 31 11 65 20
76 20 11 0 21 5 23 11 2 6 21 13 43 15 21 2 42 9 46 15 4 7 21 13 38 14 18 2
40 9 49 18 9 8 23 12 31 9 12 -4 13 30 7 219 -3 123 -8 402 -11 619 -3 217 -8
491 -11 608 l-6 214 -27 -7 c-14 -4 -91 -8 -171 -10 -111 -2 -150 1 -167 11
-12 8 -37 16 -54 18 -17 1 -34 7 -37 12 -4 5 -30 21 -59 35 -29 15 -49 29 -46
33 4 3 1 6 -5 6 -17 0 -80 69 -120 130 -32 50 -100 185 -144 286 -9 21 -28 65
-42 97 -15 32 -26 61 -26 64 0 4 -9 25 -19 47 -49 103 -91 197 -91 201 0 10
-95 182 -122 222 -15 23 -28 46 -28 52 0 6 -3 11 -7 11 -5 0 -26 27 -48 60
-21 32 -43 56 -47 54 -4 -3 -8 2 -8 10 0 9 -29 47 -65 85 -38 40 -65 77 -65
90 0 12 -6 21 -15 21 -8 0 -15 -7 -15 -16 0 -8 -5 -12 -10 -9 -6 4 -8 11 -5
16 4 5 1 9 -4 9 -6 0 -11 7 -11 15 0 8 -8 15 -18 15 -18 0 -46 18 -86 56 -13
12 -32 25 -44 28 -12 4 -22 12 -22 18 0 6 -9 8 -20 5 -11 -3 -18 -1 -14 4 3 5
-2 9 -10 9 -9 0 -16 5 -16 10 0 6 -8 10 -18 10 -10 0 -27 6 -38 14 -42 30
-228 55 -269 36z"/>
<path d="M12360 18180 c-8 -5 -26 -10 -40 -10 -26 -1 -123 -44 -115 -51 2 -3
-7 -6 -20 -7 -29 -2 -97 -47 -87 -57 4 -5 2 -5 -5 -2 -6 4 -17 1 -25 -6 -7 -7
-21 -16 -30 -20 -10 -3 -18 -11 -18 -17 0 -5 -7 -10 -15 -10 -17 0 -271 -247
-263 -256 3 -3 -4 -16 -16 -29 -34 -37 -45 -52 -68 -92 -12 -21 -25 -40 -28
-43 -3 -3 -11 -16 -18 -29 -8 -13 -22 -39 -33 -57 -10 -19 -15 -34 -11 -34 4
0 2 -4 -4 -8 -14 -9 -48 -76 -114 -227 -29 -66 -63 -143 -76 -172 -13 -28 -24
-55 -24 -58 0 -21 -141 -306 -160 -325 -10 -9 -40 -60 -36 -60 2 0 -12 -16
-31 -35 -19 -19 -38 -35 -41 -35 -3 0 -12 -7 -21 -15 -45 -41 -59 -50 -76 -53
-11 -2 -24 -9 -30 -15 -5 -7 -23 -13 -40 -15 -16 -2 -39 -9 -50 -16 -22 -14
-283 -15 -341 -1 l-31 7 -6 -269 c-6 -252 -22 -1213 -22 -1333 0 -44 3 -55 16
-55 9 0 23 -5 30 -12 8 -6 28 -15 44 -19 17 -4 35 -10 40 -15 6 -4 30 -11 53
-15 23 -4 42 -10 42 -14 0 -4 20 -11 45 -14 24 -4 47 -11 50 -16 3 -5 27 -12
53 -16 26 -3 52 -11 58 -15 7 -5 30 -11 54 -14 23 -2 47 -8 54 -14 6 -5 36
-13 66 -17 30 -4 60 -11 66 -15 6 -5 42 -11 79 -14 37 -3 84 -10 104 -16 42
-12 214 -7 281 9 25 6 59 18 75 26 17 9 36 16 43 16 6 0 12 3 12 8 0 4 16 16
36 27 41 22 114 90 114 106 0 5 5 7 10 4 6 -3 14 4 19 17 4 13 11 21 14 18 2
-3 32 21 66 52 44 41 68 57 85 56 14 -1 23 -5 20 -9 -4 -7 44 -24 59 -20 5 1
6 -3 3 -8 -4 -5 4 -13 16 -17 12 -3 28 -13 36 -21 8 -8 21 -12 28 -9 8 3 14 1
14 -5 0 -6 5 -7 12 -3 7 4 8 3 4 -5 -4 -6 0 -14 11 -17 10 -3 30 -12 45 -20
15 -8 30 -13 35 -12 4 1 20 -6 35 -16 15 -10 32 -15 38 -11 5 3 13 -1 16 -9 4
-10 25 -18 55 -22 27 -4 46 -10 43 -15 -3 -5 5 -10 18 -11 13 0 35 -2 50 -3
15 -1 34 -8 43 -15 21 -17 285 -20 306 -4 8 6 27 14 44 18 16 4 33 13 37 19 4
7 12 13 18 13 5 1 15 2 21 3 5 0 8 5 5 10 -3 5 5 12 19 15 14 4 25 13 25 21 0
8 3 14 8 12 19 -6 107 119 126 181 6 19 9 19 34 6 15 -8 38 -14 52 -14 14 0
45 -7 69 -16 25 -8 57 -16 72 -17 15 -1 25 -5 23 -9 -2 -3 15 -9 38 -13 24 -4
46 -11 49 -16 3 -5 34 -11 69 -14 35 -2 68 -9 74 -15 16 -16 291 -13 305 4 7
8 20 12 30 9 19 -5 121 36 121 49 0 4 6 8 14 8 8 0 42 27 74 59 62 62 125 158
163 249 19 46 39 68 39 43 0 -5 23 -11 50 -15 28 -4 50 -10 50 -14 0 -4 28
-13 63 -19 34 -6 87 -16 117 -21 125 -23 228 -34 275 -29 97 11 180 27 183 37
2 6 9 10 15 10 17 0 86 38 106 58 79 79 118 176 130 317 l6 80 29 -2 c16 -1
32 -6 35 -10 6 -9 77 -27 176 -44 33 -6 65 -15 70 -19 6 -4 93 -14 195 -20
144 -10 217 -10 329 -1 142 11 165 16 157 29 -2 4 12 7 33 7 20 1 57 11 83 23
92 45 121 100 99 187 -6 24 -11 46 -11 48 0 2 62 7 137 11 75 4 142 10 147 15
6 5 37 12 69 15 31 4 57 11 57 15 0 4 29 15 65 26 36 10 70 24 76 32 6 7 15
10 21 7 5 -3 20 1 33 10 13 9 31 16 40 16 8 0 24 9 34 19 11 11 22 17 25 14 3
-4 14 0 23 8 10 8 39 25 66 39 26 13 47 28 47 32 0 5 4 8 10 8 14 0 80 47 74
53 -3 2 7 7 21 11 14 4 25 13 25 21 0 8 3 14 8 13 17 -6 160 116 155 133 -1 4
9 10 22 13 14 4 25 11 25 16 0 9 8 20 54 73 100 117 160 278 136 366 -12 47
-44 67 -123 76 -85 10 -333 -27 -320 -48 3 -5 2 -7 -3 -4 -11 6 -104 -11 -119
-23 -5 -4 -25 -11 -43 -15 -18 -4 -45 -13 -60 -21 -15 -8 -37 -14 -49 -14 -12
0 -25 -4 -28 -10 -3 -5 -17 -10 -31 -10 -14 0 -23 -4 -20 -9 3 -4 -6 -6 -20
-3 -14 2 -35 -1 -47 -7 -20 -11 -54 -17 -227 -41 -84 -12 -514 -11 -605 0 -38
5 -108 14 -155 20 -47 6 -94 15 -105 20 -11 5 -45 12 -75 16 -30 3 -61 10 -70
14 -8 4 -37 13 -65 18 -91 19 -150 34 -160 42 -5 4 -28 11 -50 15 -22 4 -45
11 -52 16 -6 6 -31 11 -56 12 -28 1 -43 6 -40 13 3 7 -14 14 -41 18 -25 4 -48
11 -51 15 -2 5 -21 12 -40 15 -19 4 -35 11 -35 16 0 6 -10 10 -22 10 -13 0
-36 7 -52 15 -15 8 -33 15 -40 15 -6 0 -23 6 -38 14 -15 8 -40 17 -57 21 -17
4 -31 11 -31 16 0 5 -7 9 -16 9 -14 0 -46 13 -142 57 -18 8 -40 12 -47 9 -9
-3 -12 0 -8 10 3 9 -1 14 -13 14 -11 1 -37 9 -59 20 -22 11 -46 19 -52 20 -7
0 -13 5 -13 10 0 6 -9 10 -19 10 -11 0 -26 6 -33 14 -8 7 -29 17 -46 21 -18 3
-32 11 -32 16 0 5 -7 9 -15 9 -8 0 -32 9 -52 20 -21 11 -43 20 -50 20 -7 0
-13 4 -13 9 0 5 -13 12 -30 16 -16 4 -30 11 -30 16 0 5 -9 9 -19 9 -11 0 -26
7 -35 15 -8 8 -18 15 -23 15 -9 0 -142 67 -247 124 -38 20 -75 35 -83 32 -8
-3 -11 -1 -8 5 4 5 -7 15 -24 22 -17 6 -31 15 -31 19 0 4 -5 8 -11 8 -17 0
-99 42 -99 51 0 4 -16 10 -35 13 -19 4 -35 11 -35 16 0 5 -12 13 -27 16 -16 4
-30 10 -33 14 -9 11 -152 81 -157 76 -3 -2 -14 5 -24 15 -11 11 -26 18 -32 16
-7 -2 -17 3 -23 11 -6 8 -20 16 -31 17 -11 0 -28 9 -38 19 -10 9 -24 15 -32
12 -7 -3 -16 1 -19 9 -4 8 -11 15 -16 15 -15 0 -102 43 -106 53 -2 4 -8 7 -13
7 -6 0 -31 9 -56 21 -25 11 -53 21 -63 22 -10 1 -16 5 -14 9 3 4 0 8 -6 8 -11
0 -71 25 -145 60 -22 11 -52 22 -67 26 -16 3 -28 10 -28 14 0 5 -19 11 -42 15
-24 4 -47 11 -53 15 -5 4 -26 11 -45 14 -19 4 -44 11 -55 16 -56 24 -290 47
-315 30z"/>
<path d="M7830 13761 c-41 -4 -80 -10 -86 -13 -6 -4 -60 -10 -120 -14 -60 -3
-116 -9 -124 -14 -9 -5 -89 -11 -178 -15 -90 -3 -174 -10 -187 -15 -13 -5 -68
-12 -121 -15 -54 -3 -104 -10 -113 -14 -9 -5 -43 -12 -76 -16 -33 -4 -68 -11
-78 -17 -10 -5 -38 -11 -62 -13 -24 -2 -54 -9 -67 -16 -12 -7 -38 -14 -56 -15
-19 -2 -41 -9 -49 -15 -8 -7 -31 -14 -51 -16 -20 -2 -39 -8 -42 -12 -3 -5 -20
-12 -37 -16 -18 -3 -33 -11 -33 -16 0 -5 -6 -9 -14 -9 -21 0 -107 -45 -101
-53 3 -4 2 -5 -2 -2 -3 3 -25 -6 -49 -20 -23 -14 -50 -25 -58 -25 -9 0 -16 -5
-16 -11 0 -7 -10 -20 -22 -31 -204 -173 -257 -387 -161 -641 22 -59 75 -160
100 -192 5 -5 26 -35 48 -65 22 -30 43 -56 47 -58 5 -2 8 -8 8 -12 0 -14 75
-90 89 -90 7 0 9 -5 6 -10 -3 -6 5 -14 19 -20 14 -5 26 -12 26 -15 0 -4 -6 -3
-12 0 -7 4 -2 -2 12 -13 14 -11 43 -37 64 -57 56 -52 193 -155 207 -155 7 0
10 -3 6 -6 -9 -9 62 -56 74 -49 5 4 9 2 9 -4 0 -11 49 -48 71 -53 8 -2 20 -11
28 -21 7 -10 19 -16 27 -13 8 3 14 0 14 -7 0 -11 61 -46 83 -47 4 0 16 -9 27
-20 11 -11 26 -20 34 -20 8 0 16 -3 18 -7 7 -16 82 -49 121 -52 5 -1 5 -5 2
-11 -3 -5 0 -10 7 -10 7 0 44 -16 82 -35 39 -18 74 -31 79 -28 6 3 7 2 4 -4
-6 -10 46 -36 96 -48 15 -4 27 -11 27 -16 0 -5 8 -9 18 -9 9 0 30 -7 46 -15
15 -8 33 -15 38 -15 6 0 24 -6 41 -13 44 -19 95 -37 142 -51 22 -7 53 -18 68
-24 16 -7 37 -12 47 -12 10 0 22 -5 26 -11 3 -6 21 -9 40 -7 18 2 31 2 29 -1
-9 -8 44 -29 94 -36 28 -4 53 -10 56 -15 3 -4 29 -11 60 -15 30 -3 57 -10 60
-15 2 -4 31 -11 62 -15 32 -4 63 -10 68 -15 6 -4 42 -11 80 -15 39 -4 76 -11
82 -17 7 -6 32 -8 57 -7 24 2 42 1 40 -3 -2 -3 17 -9 44 -12 204 -24 338 -37
462 -46 80 -5 168 -14 195 -20 28 -5 122 -14 210 -20 88 -6 250 -17 360 -24
110 -8 267 -19 350 -26 82 -6 157 -9 167 -7 9 3 16 0 15 -6 -1 -6 24 -15 58
-19 33 -5 69 -13 80 -18 11 -5 40 -12 65 -16 25 -3 50 -10 55 -14 6 -4 29 -11
52 -15 24 -4 45 -11 49 -16 3 -5 13 -9 22 -9 9 0 29 -6 44 -14 15 -8 40 -17
57 -21 17 -4 31 -11 31 -16 0 -5 8 -9 17 -9 16 0 223 -98 233 -111 3 -3 15 -9
28 -13 12 -4 22 -12 22 -17 0 -5 6 -9 13 -9 8 0 24 -9 37 -20 13 -11 26 -20
29 -20 3 0 22 -14 41 -30 19 -16 50 -42 68 -57 18 -16 39 -33 46 -40 8 -7 17
-9 21 -5 5 4 5 2 2 -4 -4 -6 5 -22 19 -35 36 -33 104 -134 104 -154 0 -9 4
-14 8 -11 14 8 57 -93 76 -178 11 -45 8 -171 -4 -217 -16 -57 -57 -145 -92
-196 -16 -24 -26 -43 -22 -43 4 0 -1 -6 -11 -14 -11 -8 -25 -12 -32 -9 -8 3
-13 -3 -13 -18 0 -21 -74 -101 -128 -138 -12 -8 -18 -19 -15 -24 3 -6 2 -7 -4
-4 -5 3 -22 -5 -39 -18 -16 -14 -33 -28 -39 -33 -25 -19 -134 -82 -144 -82 -6
0 -11 -4 -11 -10 0 -5 -6 -10 -14 -10 -8 0 -22 -8 -32 -17 -9 -9 -26 -19 -37
-20 -12 -2 -24 -7 -27 -12 -3 -4 -18 -11 -33 -15 -15 -4 -26 -10 -23 -14 2 -4
-3 -8 -12 -9 -26 -2 -72 -22 -72 -30 0 -5 -12 -9 -27 -10 -15 0 -32 -7 -37
-15 -6 -7 -22 -14 -36 -16 -14 -1 -26 -7 -28 -12 -2 -6 -10 -10 -19 -10 -8 0
-29 -6 -46 -14 -18 -7 -57 -24 -87 -36 -122 -49 -110 -34 -110 -132 0 -99 5
-118 30 -118 10 0 25 -7 34 -15 8 -9 29 -17 46 -18 16 -1 32 -7 34 -14 3 -6
18 -14 35 -18 17 -4 31 -10 31 -15 0 -4 11 -11 25 -14 14 -4 46 -20 72 -36 26
-17 54 -28 61 -25 7 2 10 1 7 -4 -5 -9 32 -27 48 -23 5 1 6 -2 2 -8 -3 -5 -2
-10 3 -10 5 0 19 -9 32 -20 29 -25 67 -25 105 0 17 11 38 20 48 20 9 0 17 5
17 10 0 6 6 10 14 10 17 0 139 62 144 73 2 4 10 7 17 7 8 0 20 6 27 13 7 6 36
23 63 37 28 14 53 30 57 35 4 6 11 10 16 10 14 0 82 39 82 47 0 5 9 8 20 8 12
0 36 16 56 35 19 19 37 34 40 34 13 -3 74 37 74 48 0 7 3 12 8 12 20 -3 32 2
32 16 0 8 3 14 8 14 20 -3 32 3 32 17 0 8 4 13 9 10 4 -3 18 2 29 12 12 9 36
28 53 42 18 14 43 34 55 45 12 11 45 40 73 64 80 68 120 109 202 206 162 193
248 357 301 575 7 33 13 114 13 200 0 157 -18 251 -70 364 -14 30 -25 60 -25
65 0 6 -4 11 -9 11 -5 0 -12 11 -15 25 -4 14 -11 25 -16 25 -6 0 -10 5 -10 11
0 16 -89 139 -101 139 -5 0 -9 6 -9 13 0 16 -117 137 -132 137 -6 0 -9 3 -5 6
6 6 -25 38 -63 64 -21 14 -50 37 -77 60 -7 5 -15 10 -19 10 -4 0 -15 7 -25 16
-9 8 -26 16 -37 17 -11 0 -18 6 -16 12 3 10 -93 62 -109 57 -5 -1 -6 2 -3 7 6
9 -48 33 -58 25 -3 -2 -4 -1 -1 3 8 10 -145 83 -175 83 -19 0 -21 3 -11 9 11
7 5 11 -22 16 -20 4 -37 11 -37 16 0 5 -10 9 -23 9 -12 0 -31 6 -42 13 -11 7
-54 24 -95 37 -41 14 -77 28 -80 31 -3 4 -24 10 -47 14 -24 4 -45 10 -48 15
-3 4 -25 11 -50 14 -25 4 -45 10 -45 14 0 4 -24 13 -52 19 -103 23 -163 38
-173 44 -5 4 -30 10 -55 13 -25 4 -54 11 -65 16 -19 9 -42 13 -205 40 -36 6
-79 16 -96 21 -18 5 -63 12 -100 16 -38 3 -73 9 -79 13 -5 5 -57 11 -115 15
-58 4 -120 11 -137 17 -18 5 -144 13 -280 18 -137 5 -369 14 -518 20 -148 6
-286 10 -307 8 -20 -2 -34 0 -32 4 3 5 2 8 -3 9 -175 11 -635 75 -660 91 -6 5
-41 10 -78 12 -36 3 -72 9 -78 14 -7 5 -37 13 -67 17 -30 4 -58 11 -61 16 -3
5 -29 11 -59 14 -29 2 -56 9 -60 14 -3 6 -24 12 -45 15 -22 2 -57 11 -78 20
-22 10 -44 15 -50 13 -7 -2 -20 2 -29 10 -9 9 -31 16 -47 18 -17 1 -37 7 -44
13 -8 7 -28 15 -46 18 -17 4 -34 11 -37 15 -3 5 -12 9 -20 9 -8 0 -35 9 -59
20 -24 11 -55 21 -69 22 -13 1 -22 6 -20 10 3 4 -1 8 -8 8 -7 0 -26 7 -42 15
-16 9 -37 17 -47 18 -9 2 -24 9 -33 16 -8 7 -21 9 -27 5 -8 -4 -9 -3 -5 4 4 7
1 12 -8 12 -9 0 -16 3 -16 8 0 10 -51 33 -60 27 -5 -3 -6 4 -3 16 4 14 1 20
-8 19 -29 -5 -47 1 -69 20 -13 11 -29 20 -37 20 -7 0 -13 11 -13 25 0 27 -17
35 -22 10 -3 -14 -6 -14 -27 2 -12 10 -36 30 -52 46 -16 15 -33 27 -38 27 -4
0 -16 9 -26 20 -10 11 -24 20 -32 20 -8 0 -11 5 -8 11 4 6 -2 13 -14 16 -11 3
-19 9 -16 13 3 4 -6 19 -20 34 -13 15 -25 29 -25 31 0 3 -8 20 -17 38 -13 23
-18 54 -18 112 0 70 4 86 28 128 15 26 32 47 37 47 5 0 12 9 15 20 3 11 17 23
31 26 13 3 24 10 24 14 0 5 15 12 33 15 17 4 38 12 46 19 20 16 705 15 746 -1
17 -7 63 -15 104 -17 41 -3 77 -10 81 -16 3 -5 26 -11 50 -14 24 -2 46 -9 48
-15 2 -6 12 -11 23 -11 10 0 19 -4 19 -10 0 -5 7 -10 16 -10 8 0 35 -9 60 -20
24 -12 49 -18 54 -15 6 3 7 -1 4 -9 -4 -11 0 -16 14 -16 11 0 27 -6 34 -13 7
-8 26 -17 41 -21 15 -3 27 -11 27 -16 0 -6 8 -10 19 -10 10 0 24 -7 31 -15 7
-8 21 -15 31 -15 10 0 20 -4 23 -9 9 -15 88 -50 126 -57 19 -3 44 -10 55 -15
43 -21 457 5 490 31 6 4 27 10 47 14 20 4 50 13 65 21 15 8 38 15 49 15 12 0
27 7 34 15 7 8 19 15 27 15 8 0 11 5 8 10 -4 6 -3 10 2 9 30 -5 55 8 106 58
30 29 20 160 -18 238 -30 62 -65 118 -77 123 -5 2 -8 8 -8 14 0 6 -10 20 -23
32 -12 11 -22 24 -22 28 1 18 -191 198 -211 198 -7 0 -14 4 -16 9 -5 13 -139
84 -146 77 -3 -3 -17 2 -31 11 -23 15 -61 18 -336 19 -170 1 -344 -2 -385 -5z
m1383 -1868 c-7 -2 -19 -2 -25 0 -7 3 -2 5 12 5 14 0 19 -2 13 -5z"/>
<path d="M11450 13763 c-30 -2 -59 -8 -65 -12 -5 -5 -27 -11 -48 -15 -21 -4
-40 -13 -43 -20 -3 -7 -10 -13 -17 -13 -18 0 -118 -63 -149 -94 -15 -15 -24
-30 -20 -34 4 -5 2 -5 -5 -1 -11 6 -26 -4 -64 -40 -30 -29 -107 -126 -108
-136 -1 -5 -9 -16 -19 -26 -9 -9 -33 -49 -51 -87 -19 -39 -38 -78 -43 -88 -5
-11 -12 -49 -15 -85 -5 -66 -4 -68 28 -101 32 -32 83 -58 102 -53 5 1 6 -2 3
-7 -8 -12 30 -25 44 -16 6 4 9 1 8 -6 -2 -6 13 -16 32 -21 19 -6 40 -13 45
-18 6 -4 28 -11 50 -15 22 -4 45 -11 51 -16 30 -24 461 -52 487 -31 7 6 32 13
57 17 25 4 47 10 50 14 3 3 28 18 57 32 29 15 50 29 48 31 -3 3 2 5 10 5 11 0
127 55 195 93 33 19 89 40 104 40 9 0 16 5 16 10 0 6 9 10 19 10 11 0 21 5 23
11 2 6 21 13 42 15 21 2 44 8 51 14 7 6 48 13 91 16 44 3 88 11 99 17 13 7
143 12 365 14 280 2 350 0 372 -11 15 -8 41 -17 58 -21 47 -10 133 -100 153
-159 31 -90 15 -187 -41 -256 -49 -62 -137 -150 -148 -150 -6 0 -29 -16 -50
-35 -21 -19 -44 -35 -51 -35 -7 0 -13 -3 -13 -8 0 -4 -9 -12 -20 -17 -89 -45
-128 -69 -123 -78 3 -6 2 -7 -4 -4 -5 3 -21 -1 -34 -11 -13 -9 -33 -18 -44
-19 -11 -2 -24 -9 -30 -16 -5 -6 -21 -13 -35 -15 -13 -1 -28 -9 -33 -17 -4 -9
-13 -13 -18 -9 -5 3 -22 -2 -37 -12 -27 -18 -31 -20 -65 -22 -10 -1 -16 -6
-13 -10 3 -5 0 -9 -7 -9 -19 0 -151 -45 -166 -57 -7 -6 -21 -11 -30 -11 -45
-4 -52 -6 -46 -15 4 -6 3 -9 -2 -8 -15 4 -103 -13 -108 -21 -2 -5 -25 -12 -50
-15 -25 -4 -43 -11 -40 -17 3 -5 0 -6 -8 -3 -8 3 -18 1 -21 -4 -3 -6 -16 -8
-28 -4 -13 3 -19 1 -15 -5 4 -6 -3 -8 -17 -6 -13 3 -34 -1 -47 -8 -13 -7 -33
-13 -44 -14 -11 -1 -32 -2 -47 -3 -15 -1 -33 -8 -40 -14 -7 -7 -40 -14 -73
-16 -33 -1 -69 -6 -80 -11 -11 -5 -56 -15 -100 -21 -44 -6 -127 -18 -185 -26
-214 -30 -560 -59 -747 -63 -60 -1 -63 -2 -63 -25 0 -24 33 -46 47 -32 4 3 16
0 27 -8 12 -7 42 -17 66 -21 25 -4 50 -11 56 -16 7 -5 31 -11 54 -14 24 -2 46
-9 50 -15 4 -6 23 -12 43 -14 20 -2 43 -8 50 -15 8 -6 28 -12 45 -14 17 -2 37
-9 45 -15 8 -7 29 -15 48 -19 18 -3 45 -12 59 -20 14 -7 33 -13 43 -13 9 0 17
-3 17 -8 0 -8 43 -28 83 -38 15 -3 27 -10 27 -15 0 -5 6 -9 13 -9 6 -1 30 -9
52 -20 22 -11 46 -19 53 -20 6 0 12 -4 12 -10 0 -5 5 -10 11 -10 5 0 31 -10
57 -22 26 -11 52 -21 59 -21 7 0 10 -3 8 -7 -2 -3 17 -17 43 -31 26 -13 49
-26 52 -30 3 -3 22 -15 43 -28 32 -19 46 -22 85 -16 26 4 52 11 58 16 7 5 35
12 63 16 28 3 51 9 51 14 0 4 20 11 45 15 25 3 45 10 45 15 0 4 21 11 48 15
26 4 49 10 52 13 3 4 34 17 70 30 36 12 74 26 85 31 11 5 43 18 70 30 69 29
80 34 156 69 37 17 71 31 77 31 6 0 12 3 14 8 4 9 91 52 107 52 6 0 11 3 11 8
0 4 25 18 55 31 30 14 55 28 55 33 0 4 7 8 15 8 8 0 24 9 35 20 11 11 20 18
20 15 0 -7 52 22 123 68 31 20 57 41 57 47 0 5 3 9 8 9 20 -3 32 2 26 13 -4 6
-3 8 3 5 11 -7 69 33 188 128 28 22 51 43 53 47 2 5 12 8 23 8 17 0 25 17 20
43 -1 5 3 6 8 3 9 -6 158 139 153 149 -1 3 11 17 28 32 17 14 29 28 26 31 -3
2 6 13 19 24 14 11 25 26 25 33 0 8 6 18 13 22 12 8 19 19 65 106 36 66 58
125 77 207 45 196 -23 391 -180 515 -21 17 -45 38 -54 48 -8 9 -23 17 -33 17
-10 0 -18 4 -18 10 0 5 -11 12 -25 16 -13 3 -29 12 -36 20 -6 8 -20 14 -30 14
-11 0 -19 4 -19 10 0 5 -12 13 -27 16 -16 4 -31 11 -34 17 -4 5 -20 10 -37 12
-17 1 -37 7 -44 13 -7 6 -27 14 -43 18 -17 4 -35 11 -41 16 -7 4 -30 10 -54
13 -23 2 -48 9 -55 15 -12 10 -62 19 -132 24 -11 0 -19 4 -16 9 2 4 -6 8 -19
9 -13 1 -40 2 -61 4 -21 1 -43 7 -50 13 -7 5 -60 13 -117 16 -57 4 -112 10
-121 15 -9 5 -89 12 -178 15 -89 3 -172 10 -185 15 -13 5 -72 12 -131 15 -59
3 -119 11 -133 17 -27 11 -599 19 -712 11z"/>
<path d="M12780 11640 c0 -11 5 -20 10 -20 6 0 10 9 10 20 0 11 -4 20 -10 20
-5 0 -10 -9 -10 -20z"/>
<path d="M7936 11177 c-79 -67 -132 -119 -116 -112 8 3 6 -1 -4 -9 -11 -9 -24
-16 -29 -16 -4 0 -6 -4 -2 -9 3 -5 -4 -12 -15 -16 -11 -3 -20 -10 -20 -14 0
-4 -11 -21 -25 -37 -14 -16 -38 -47 -53 -69 -15 -22 -30 -41 -34 -43 -5 -2 -8
-8 -8 -13 0 -5 -12 -28 -26 -50 -37 -59 -81 -173 -104 -273 -48 -206 -11 -470
93 -671 43 -82 144 -234 179 -267 15 -16 26 -28 24 -28 -6 0 71 -84 129 -141
104 -101 159 -149 172 -149 8 0 12 -3 10 -7 -3 -5 19 -26 49 -48 29 -22 53
-46 54 -52 0 -7 8 -13 18 -13 9 0 26 -7 36 -15 10 -8 23 -12 27 -9 5 3 9 -2 9
-10 0 -14 12 -20 25 -13 2 1 12 -8 20 -20 9 -13 20 -23 25 -23 4 0 27 -12 50
-27 23 -16 46 -28 51 -28 6 0 13 -5 17 -12 4 -6 14 -13 21 -15 8 -2 23 -11 33
-21 10 -10 23 -15 28 -12 6 4 10 1 10 -5 0 -6 15 -17 34 -25 19 -8 37 -19 41
-25 3 -5 15 -10 26 -10 10 0 19 -4 19 -10 0 -5 11 -12 25 -16 14 -3 25 -10 25
-15 0 -5 6 -9 14 -9 8 0 16 -5 18 -11 2 -7 18 -12 35 -13 18 -1 29 -5 26 -13
-2 -6 9 -14 26 -18 17 -4 31 -10 31 -15 0 -8 67 -25 83 -21 5 1 6 -3 2 -9 -4
-6 7 -13 24 -16 17 -4 31 -10 31 -15 0 -5 6 -9 13 -9 6 0 25 -7 41 -15 16 -9
37 -13 45 -10 8 3 12 3 9 -1 -8 -7 17 -35 29 -32 16 4 73 -14 73 -23 0 -5 8
-9 18 -9 9 0 30 -7 45 -15 15 -8 43 -17 62 -21 19 -3 35 -10 35 -14 0 -5 18
-11 40 -15 22 -4 40 -11 40 -17 0 -6 11 -8 25 -6 13 3 22 1 19 -3 -3 -5 4 -9
15 -9 11 0 22 -4 25 -9 4 -5 24 -12 46 -16 22 -4 42 -10 45 -15 3 -4 21 -11
40 -14 19 -4 35 -11 35 -16 0 -6 10 -10 23 -10 12 -1 40 -9 62 -20 22 -11 46
-19 53 -20 7 0 20 -4 30 -9 50 -25 111 -51 121 -51 6 0 11 -4 11 -10 0 -5 8
-10 18 -10 9 0 29 -6 43 -14 14 -7 37 -16 52 -20 15 -3 27 -11 27 -16 0 -6 8
-10 19 -10 10 0 24 -6 30 -14 7 -8 26 -18 42 -21 16 -4 29 -11 29 -16 0 -5 6
-9 14 -9 8 0 21 -6 28 -12 7 -7 35 -24 61 -38 26 -14 59 -35 73 -48 14 -14 36
-25 49 -26 13 0 23 -5 22 -11 -1 -5 8 -14 20 -19 12 -6 27 -20 34 -32 7 -15
19 -21 32 -18 11 2 17 1 14 -2 -5 -6 21 -33 85 -89 92 -80 197 -246 232 -366
25 -87 22 -238 -8 -324 -38 -113 -47 -135 -57 -135 -5 0 -9 -8 -9 -18 0 -10
-27 -59 -60 -108 -69 -104 -94 -134 -109 -134 -6 0 -11 -5 -11 -11 0 -11 -59
-91 -72 -97 -3 -2 -36 -31 -72 -65 -36 -34 -76 -71 -90 -82 -14 -11 -26 -26
-26 -32 0 -7 -4 -12 -9 -10 -5 1 -23 -13 -40 -30 -17 -18 -32 -29 -32 -25 -6
30 -17 -118 -18 -229 -1 -142 3 -157 44 -163 9 -1 20 -7 23 -13 4 -6 13 -13
21 -15 8 -2 27 -15 43 -30 27 -26 41 -33 61 -29 5 1 6 -3 2 -9 -13 -21 27 -22
55 -1 16 11 32 21 35 21 11 0 35 28 35 40 0 6 4 9 8 6 5 -3 26 11 47 30 21 19
43 34 47 34 5 0 6 5 3 10 -3 6 1 10 10 10 10 0 13 5 9 12 -4 7 -3 8 4 4 12 -7
52 27 52 44 0 5 4 9 8 7 8 -2 71 51 125 103 28 27 91 97 122 135 17 20 36 43
43 51 33 34 142 190 142 201 0 7 5 13 10 13 6 0 10 5 10 11 0 6 9 23 19 37 10
15 20 32 21 37 2 6 13 26 25 45 12 19 26 46 30 60 4 14 12 31 18 38 5 6 25 56
43 110 18 53 34 89 34 80 0 -10 5 -18 10 -18 14 0 13 37 -1 42 -9 3 -7 22 4
68 38 162 28 422 -24 585 -31 100 -94 237 -110 243 -5 2 -9 8 -9 14 0 12 -61
102 -72 106 -4 2 -8 9 -8 15 0 7 -22 36 -49 65 -26 28 -47 52 -45 52 2 0 -15
19 -37 43 -23 23 -45 41 -50 40 -5 -2 -8 1 -6 5 3 9 -60 72 -73 72 -5 0 -13 6
-17 13 -12 20 -113 92 -125 89 -5 -1 -7 1 -4 6 3 5 -13 19 -34 33 -22 13 -42
32 -46 42 -4 13 -12 17 -25 14 -10 -3 -19 -2 -19 3 0 4 -11 11 -25 14 -14 4
-25 11 -25 16 0 6 -6 10 -14 10 -8 0 -21 6 -28 14 -8 7 -24 17 -36 20 -12 4
-22 12 -22 17 0 5 -7 9 -16 9 -9 0 -31 9 -49 20 -18 11 -44 21 -58 22 -14 1
-24 4 -22 7 3 2 -13 13 -35 23 -26 13 -40 27 -40 39 0 10 -4 19 -10 19 -5 0
-10 -7 -10 -15 0 -8 -7 -15 -15 -15 -8 0 -15 4 -15 9 0 5 -18 12 -40 16 -22 4
-40 11 -40 16 0 5 -8 9 -17 9 -10 0 -31 7 -47 15 -15 8 -33 15 -38 15 -5 0
-30 9 -55 21 -25 11 -54 19 -64 16 -11 -3 -16 0 -13 8 3 8 -7 15 -30 19 -19 4
-48 13 -63 21 -15 8 -36 15 -45 15 -10 0 -18 4 -18 9 0 5 -18 12 -40 16 -22 4
-40 11 -40 15 0 5 -16 12 -35 16 -19 3 -35 10 -35 14 0 5 -14 11 -31 15 -17 4
-42 13 -57 21 -15 8 -35 14 -44 14 -10 0 -18 4 -18 10 0 9 -66 26 -83 22 -5
-1 -6 2 -2 8 4 6 -7 13 -24 16 -17 4 -31 10 -31 15 0 5 -8 9 -17 9 -10 1 -36
9 -58 20 -22 11 -48 19 -57 20 -10 0 -18 4 -18 10 0 5 -16 12 -35 16 -19 3
-35 10 -35 14 0 5 -15 12 -32 15 -18 4 -35 11 -38 16 -3 5 -17 10 -30 11 -13
2 -32 11 -42 21 -10 9 -30 17 -44 17 -14 0 -23 4 -19 10 6 9 2 12 -27 14 -7 1
-21 9 -30 19 -10 9 -25 17 -33 17 -8 0 -15 4 -15 8 0 5 -18 16 -40 26 -23 10
-50 27 -60 39 -11 11 -23 18 -26 14 -4 -4 -13 2 -21 13 -8 11 -18 20 -23 20
-5 0 -25 16 -44 35 -20 19 -39 35 -43 35 -5 0 -16 8 -25 18 -9 9 -23 22 -30
28 -40 33 -108 115 -108 129 0 9 -4 14 -9 11 -13 -8 -69 83 -107 174 -18 41
-38 110 -45 153 -12 70 -11 88 5 169 10 50 25 103 32 117 8 14 14 32 14 39 0
7 5 10 10 7 6 -3 10 3 10 14 0 53 176 257 284 328 25 17 43 33 39 37 -3 3 3 6
15 6 11 0 27 6 34 14 8 7 24 17 36 20 12 4 22 11 22 16 0 5 14 11 30 15 17 4
30 11 30 16 0 5 7 9 15 9 8 0 32 9 52 20 21 11 43 20 49 20 7 0 25 7 40 15 16
8 38 15 49 15 27 1 55 23 55 44 0 9 -1 16 -2 17 -14 5 -322 32 -385 33 -44 0
-79 4 -76 9 2 4 -16 7 -41 7 -25 0 -48 5 -51 10 -3 6 -30 10 -58 10 -29 1 -72
5 -97 11 -46 10 -147 29 -260 49 -36 7 -69 16 -74 21 -6 5 -33 9 -60 9 -45 0
-57 -5 -100 -43z"/>
<path d="M9671 10572 c1 -246 4 -645 8 -888 7 -488 3 -463 74 -482 19 -6 39
-7 43 -4 4 4 4 2 1 -5 -5 -7 5 -14 25 -18 18 -4 36 -12 39 -18 4 -5 21 -10 38
-11 17 0 33 -6 35 -13 3 -7 21 -15 40 -19 20 -3 36 -10 36 -14 0 -4 15 -11 34
-14 19 -4 48 -13 65 -22 17 -8 35 -13 40 -9 5 3 13 -1 18 -9 4 -8 20 -17 34
-21 l27 -7 6 154 c5 118 24 1786 21 1795 -1 1 -26 4 -57 5 -31 2 -54 6 -51 11
2 4 -29 7 -69 7 -40 0 -89 4 -108 9 -19 5 -95 11 -167 14 l-133 6 1 -447z"/>
<path d="M9026 8525 c-3 -8 -12 -15 -21 -15 -8 0 -15 -4 -15 -8 0 -5 -21 -24
-47 -43 -70 -50 -267 -252 -310 -317 -21 -31 -41 -58 -45 -60 -5 -2 -8 -8 -8
-14 0 -5 -13 -28 -29 -51 -15 -23 -32 -53 -36 -67 -4 -14 -11 -27 -15 -30 -12
-8 -67 -169 -87 -250 -25 -106 -25 -384 0 -490 30 -125 67 -230 117 -330 77
-156 115 -218 211 -345 68 -91 217 -251 230 -247 5 1 9 -4 9 -11 0 -7 19 -28
42 -47 23 -19 49 -43 57 -52 8 -9 18 -15 23 -12 4 3 8 -2 8 -10 0 -9 4 -16 8
-16 5 0 26 -16 47 -35 22 -19 41 -33 42 -31 2 2 19 -11 37 -28 42 -41 136
-102 150 -98 6 2 8 1 4 -3 -15 -15 50 -54 77 -46 6 1 7 -1 3 -5 -9 -9 37 -40
142 -94 25 -13 47 -27 50 -30 13 -16 81 -51 89 -46 5 4 13 1 17 -5 4 -8 3 -9
-4 -5 -7 4 -12 2 -12 -3 0 -6 6 -11 14 -11 8 0 21 -6 28 -12 20 -19 76 -58 83
-58 4 0 13 -6 20 -12 29 -26 40 -34 58 -41 9 -3 17 -11 17 -16 0 -5 14 -12 30
-16 17 -4 28 -11 24 -16 -3 -5 3 -12 13 -16 10 -3 30 -19 46 -35 15 -15 32
-28 37 -28 6 0 10 -4 10 -9 0 -5 11 -12 25 -15 14 -4 24 -10 21 -14 -2 -4 9
-17 25 -27 16 -11 29 -26 29 -32 0 -7 5 -13 11 -13 16 0 159 -149 159 -165 0
-8 9 -17 20 -20 11 -3 20 -9 20 -13 0 -4 19 -31 43 -59 58 -71 122 -203 141
-287 13 -62 13 -77 0 -135 -9 -36 -20 -71 -26 -78 -6 -7 -7 -13 -4 -13 4 0
-20 -40 -54 -89 -41 -61 -66 -88 -76 -84 -9 3 -14 -1 -14 -13 0 -11 -13 -33
-30 -50 -16 -18 -27 -35 -24 -38 2 -3 1 -4 -3 -1 -10 8 -33 -16 -26 -28 3 -5
1 -7 -4 -4 -6 4 -17 -1 -25 -11 -13 -14 -17 -58 -20 -219 -5 -188 -4 -204 14
-219 10 -10 18 -23 18 -30 0 -7 16 -18 34 -25 19 -7 33 -16 30 -21 -14 -23 36
-3 71 28 22 19 53 45 68 57 54 42 196 190 191 199 -3 5 -2 8 3 7 18 -3 33 2
33 11 0 10 10 24 62 85 15 18 25 35 21 39 -3 3 -2 6 4 6 15 0 93 122 135 210
170 354 139 721 -87 1044 -30 44 -75 101 -100 127 -25 26 -45 52 -45 58 0 6
-5 11 -11 11 -6 0 -37 25 -69 56 -32 31 -74 68 -94 82 -20 14 -36 29 -36 34 0
4 -7 8 -15 8 -7 0 -18 6 -22 13 -4 7 -26 24 -48 37 -22 13 -42 27 -45 30 -3 3
-23 17 -45 30 -22 13 -43 28 -46 33 -4 5 -12 6 -19 2 -9 -5 -11 -4 -6 3 4 7 1
12 -8 12 -9 0 -16 5 -16 10 0 6 -5 10 -11 10 -20 0 -139 75 -139 88 0 6 -11
12 -24 12 -13 0 -26 4 -28 8 -7 16 -78 53 -89 46 -8 -4 -9 -3 -5 4 4 6 -4 16
-16 23 -13 7 -25 15 -28 19 -3 5 -27 20 -54 34 -27 14 -45 26 -40 26 4 0 -11
12 -34 27 -23 15 -42 33 -42 40 0 7 -9 13 -20 13 -12 0 -26 5 -33 10 -27 23
-56 46 -77 60 -12 8 -38 29 -58 47 -19 17 -39 30 -44 27 -4 -3 -8 0 -8 6 0 12
-42 50 -57 52 -4 1 -17 13 -28 27 -11 14 -24 28 -28 30 -5 2 -16 12 -25 22 -9
10 -19 16 -24 13 -4 -3 -8 0 -8 7 0 14 -77 88 -85 81 -3 -3 -5 2 -5 11 0 9 -6
20 -12 24 -18 11 -97 107 -139 168 -19 28 -37 52 -41 53 -5 2 -8 10 -8 17 0 8
-6 18 -14 22 -8 4 -15 11 -15 16 0 4 -13 35 -29 70 -95 205 -99 384 -13 561
22 47 41 90 41 96 0 6 5 8 10 5 6 -3 10 -2 10 2 0 12 28 50 68 89 17 19 32 36
32 39 0 3 11 16 24 28 66 61 87 77 101 77 8 0 15 6 15 13 0 6 11 19 23 28 87
62 128 89 137 89 5 0 10 3 10 8 0 4 14 15 30 24 l31 17 -5 108 c-2 59 -5 111
-5 116 -1 4 -9 7 -18 7 -10 0 -31 7 -47 15 -15 8 -33 15 -40 15 -6 0 -24 7
-39 15 -15 8 -43 17 -62 21 -19 3 -35 10 -35 14 0 4 -15 11 -34 14 -19 4 -46
19 -61 33 -16 17 -29 23 -33 17 -8 -13 -44 -15 -36 -2 3 4 -2 8 -10 8 -9 0
-16 5 -16 11 0 6 -7 9 -15 6 -8 -4 -17 -2 -20 3 -9 15 -42 12 -49 -5z"/>
<path d="M9700 8133 c0 -428 23 -1640 31 -1655 5 -10 16 -18 24 -18 8 0 15 -4
15 -9 0 -5 8 -12 18 -15 9 -4 31 -19 49 -34 60 -51 78 -62 90 -58 7 3 13 -1
13 -9 0 -14 12 -19 33 -16 4 0 7 -5 7 -11 1 -16 69 -60 81 -52 5 3 9 -2 9 -10
0 -9 4 -16 8 -16 5 0 19 -9 32 -20 13 -11 29 -20 37 -20 7 0 13 -4 13 -10 0
-5 6 -10 14 -10 23 0 25 61 36 985 6 473 13 874 16 891 5 29 4 32 -22 32 -15
0 -33 7 -39 16 -7 9 -19 16 -28 16 -18 0 -80 31 -85 43 -2 4 -12 7 -23 7 -10
0 -19 5 -19 10 0 6 -7 10 -16 10 -9 0 -28 7 -42 14 -62 34 -162 67 -175 59 -6
-3 -7 -1 -4 4 8 13 -14 23 -49 23 l-24 0 0 -147z"/>
<path d="M9303 5712 c-26 -21 -59 -51 -73 -65 -14 -15 -29 -27 -33 -27 -9 0
-31 -24 -87 -91 -19 -23 -40 -47 -45 -53 -29 -30 -110 -152 -144 -218 -21 -41
-54 -119 -72 -174 -34 -98 -34 -102 -34 -274 0 -136 4 -189 18 -240 25 -89 49
-154 61 -162 6 -4 7 -8 3 -8 -11 0 102 -211 123 -230 3 -3 17 -21 30 -40 13
-19 29 -40 35 -46 5 -6 33 -37 60 -69 66 -77 74 -85 87 -85 6 0 9 -3 6 -6 -7
-6 43 -57 123 -125 28 -24 57 -50 65 -57 7 -7 34 -29 60 -49 69 -52 72 -55
112 -90 19 -18 39 -33 44 -33 5 0 15 -6 23 -12 7 -7 30 -26 50 -43 21 -16 43
-35 49 -40 12 -11 69 -48 75 -49 2 -1 26 -22 54 -49 27 -26 52 -45 54 -43 3 2
17 -9 31 -24 15 -16 35 -37 44 -47 10 -10 31 -31 47 -48 17 -16 38 -45 48 -65
10 -19 23 -39 30 -45 17 -15 61 -100 90 -175 75 -194 92 -337 75 -613 -7 -105
-12 -333 -12 -504 0 -306 0 -313 20 -313 14 0 20 7 20 21 0 11 9 34 21 50 11
16 17 29 13 29 -4 0 0 6 8 12 17 13 119 212 133 258 4 14 11 30 15 35 11 14
86 238 103 310 39 155 51 269 51 475 0 254 -17 348 -96 530 -32 73 -77 160
-92 177 -30 34 -36 43 -36 53 0 5 -4 10 -8 10 -4 0 -15 12 -25 28 -9 15 -37
49 -62 77 -25 27 -45 54 -45 59 0 4 -7 6 -15 2 -8 -3 -14 -2 -14 2 3 20 -3 31
-18 36 -10 3 -29 16 -43 29 -53 48 -120 99 -120 91 0 -4 -6 1 -14 12 -8 10
-20 19 -28 19 -7 1 -12 6 -10 13 2 11 -11 16 -30 13 -5 0 -8 6 -8 14 0 8 -4
15 -9 15 -8 0 -33 20 -108 88 -20 17 -42 32 -50 32 -8 0 -11 5 -8 10 3 6 2 10
-4 10 -6 0 -24 14 -41 30 -17 17 -35 30 -41 30 -5 0 -12 7 -15 15 -4 8 -10 15
-16 15 -5 0 -21 11 -36 25 -74 67 -110 94 -116 87 -4 -4 -6 0 -4 8 2 8 -3 14
-10 12 -8 -1 -11 2 -8 6 3 5 -8 20 -24 32 -19 14 -30 32 -30 47 0 15 -5 23
-14 21 -19 -4 -59 41 -117 130 -105 160 -108 264 -13 458 20 42 43 78 50 81 8
3 14 11 14 18 0 14 57 88 118 151 l42 45 0 202 c0 111 -4 207 -8 213 -4 7 -27
22 -52 35 -25 13 -47 26 -50 30 -9 12 -85 49 -101 49 -10 0 -39 -17 -66 -38z"/>
<path d="M9730 5513 c1 -10 5 -299 10 -643 6 -426 12 -626 20 -628 6 -2 16 -9
23 -15 10 -10 72 -60 122 -100 6 -4 23 -18 39 -32 17 -13 34 -21 39 -18 6 3 7
1 4 -4 -4 -6 3 -18 16 -26 12 -8 32 -23 44 -33 11 -11 31 -26 43 -34 12 -8 28
-21 36 -27 7 -7 19 -13 27 -13 11 0 15 56 20 332 4 182 7 468 7 634 l0 304
-25 6 c-14 3 -23 9 -20 13 5 9 -49 51 -66 51 -7 0 -10 3 -6 6 9 10 -85 84 -97
77 -6 -3 -8 -3 -4 1 8 10 -59 76 -77 76 -7 0 -20 6 -27 13 -20 20 -61 42 -73
38 -5 -1 -7 1 -3 5 9 8 -21 33 -39 34 -7 0 -13 -8 -13 -17z"/>
<path d="M9480 3486 c0 -8 -16 -40 -35 -70 -19 -29 -31 -56 -28 -60 4 -3 2 -6
-4 -6 -5 0 -28 -37 -51 -82 -79 -162 -108 -279 -117 -488 -13 -287 22 -514
128 -815 31 -88 96 -228 111 -237 6 -4 7 -8 3 -8 -10 0 31 -74 89 -161 24 -37
44 -72 44 -78 0 -6 4 -11 9 -11 5 0 12 -8 16 -19 3 -10 20 -34 38 -52 18 -19
48 -54 67 -78 60 -76 223 -245 295 -306 19 -16 45 -39 58 -50 13 -11 38 -31
56 -45 18 -14 41 -33 49 -42 9 -10 20 -18 24 -18 4 0 19 -11 34 -25 15 -14 31
-25 35 -25 16 0 9 52 -9 69 -9 9 -23 28 -31 42 -7 15 -23 37 -35 51 -13 13
-36 44 -52 68 -16 25 -37 52 -46 61 -10 9 -15 18 -13 21 3 3 -1 11 -10 18 -8
7 -15 19 -15 26 0 8 -4 14 -10 14 -5 0 -10 4 -10 9 0 5 -22 44 -50 85 -27 42
-50 80 -50 86 0 5 -4 10 -8 10 -4 0 -13 12 -19 28 -7 15 -30 61 -52 102 -23
41 -41 87 -41 103 0 17 -5 27 -15 27 -8 0 -15 7 -15 15 0 8 -4 15 -10 15 -5 0
-10 5 -10 11 0 6 -7 25 -14 42 -18 40 -82 205 -89 232 -3 11 -13 45 -21 75
-62 215 -60 186 -64 816 -3 532 -4 583 -20 598 -30 29 -65 56 -73 56 -4 0 -14
3 -23 6 -11 4 -16 1 -16 -10z"/>
<path d="M9764 2793 c4 -274 11 -525 17 -558 19 -114 69 -295 98 -360 5 -11
23 -55 41 -98 17 -43 40 -94 50 -113 11 -19 20 -36 20 -39 2 -13 34 -76 65
-130 20 -33 40 -73 46 -88 6 -15 16 -26 23 -24 24 8 33 1312 9 1402 -14 52
-44 130 -74 191 -23 47 -106 166 -121 172 -5 2 -8 10 -8 18 0 8 -5 14 -12 14
-6 0 -18 7 -27 15 -51 50 -108 95 -120 95 -11 0 -12 -83 -7 -497z"/>
<path d="M9793 833 c3 -120 12 -259 21 -309 14 -86 42 -198 54 -219 4 -5 8
-18 9 -29 5 -33 56 -85 83 -85 75 0 141 197 166 492 7 77 6 79 -21 103 -15 13
-32 21 -36 18 -5 -3 -9 0 -9 6 0 16 -51 61 -61 54 -5 -3 -9 2 -9 10 0 9 -4 16
-9 16 -4 0 -46 36 -92 80 -45 44 -87 80 -92 80 -6 0 -7 -86 -4 -217z"/>
</g>
</svg>
